<svg width="29" height="30" viewBox="0 0 29 30" fill="none" xmlns="http://www.w3.org/2000/svg">
<path d="M22.3287 0.699219H6.97246C5.24996 0.701147 3.59854 1.40527 2.38055 2.6571C1.16255 3.90892 0.477462 5.60621 0.475586 7.37656L0.475586 23.1594C0.477462 24.9297 1.16255 26.627 2.38055 27.8788C3.59854 29.1307 5.24996 29.8348 6.97246 29.8367H22.3287C24.0512 29.8348 25.7026 29.1307 26.9206 27.8788C28.1386 26.627 28.8237 24.9297 28.8256 23.1594V7.37656C28.8237 5.60621 28.1386 3.90892 26.9206 2.6571C25.7026 1.40527 24.0512 0.701147 22.3287 0.699219ZM4.01934 12.8398H6.38184V17.6961H4.01934V12.8398ZM19.3756 13.4469H9.92559V4.34141H19.3756V13.4469ZM9.92559 17.0891H19.3756V26.1945H9.92559V17.0891ZM22.9193 12.8398H25.2818V17.6961H22.9193V12.8398ZM25.2818 7.37656V9.19766H22.9193V4.40332C23.5862 4.54322 24.1855 4.91555 24.616 5.45733C25.0465 5.9991 25.2817 6.67707 25.2818 7.37656ZM6.38184 4.40332V9.19766H4.01934V7.37656C4.01947 6.67707 4.25467 5.9991 4.68516 5.45733C5.11565 4.91555 5.715 4.54322 6.38184 4.40332ZM4.01934 23.1594V21.3383H6.38184V26.1326C5.715 25.9927 5.11565 25.6204 4.68516 25.0786C4.25467 24.5368 4.01947 23.8589 4.01934 23.1594ZM22.9193 26.1326V21.3383H25.2818V23.1594C25.2817 23.8589 25.0465 24.5368 24.616 25.0786C24.1855 25.6204 23.5862 25.9927 22.9193 26.1326Z" fill="black"/>
</svg>
