<svg width="24" height="29" viewBox="0 0 24 29" fill="none" xmlns="http://www.w3.org/2000/svg">
<path d="M17.4414 15.2071C17.4414 15.677 17.2651 16.1277 16.9513 16.46C16.6374 16.7923 16.2118 16.9789 15.768 16.9789H7.95859C7.51477 16.9789 7.08913 16.7923 6.77529 16.46C6.46146 16.1277 6.28516 15.677 6.28516 15.2071C6.28516 14.7371 6.46146 14.2864 6.77529 13.9542C7.08913 13.6219 7.51477 13.4352 7.95859 13.4352H15.768C16.2118 13.4352 16.6374 13.6219 16.9513 13.9542C17.2651 14.2864 17.4414 14.7371 17.4414 15.2071ZM12.4211 19.3414H7.95859C7.51477 19.3414 7.08913 19.5281 6.77529 19.8604C6.46146 20.1927 6.28516 20.6434 6.28516 21.1133C6.28516 21.5832 6.46146 22.0339 6.77529 22.3662C7.08913 22.6985 7.51477 22.8852 7.95859 22.8852H12.4211C12.8649 22.8852 13.2906 22.6985 13.6044 22.3662C13.9182 22.0339 14.0945 21.5832 14.0945 21.1133C14.0945 20.6434 13.9182 20.1927 13.6044 19.8604C13.2906 19.5281 12.8649 19.3414 12.4211 19.3414ZM23.0195 10.0769V22.2946C23.0178 24.0171 22.3707 25.6685 21.2204 26.8865C20.0701 28.1045 18.5104 28.7896 16.8836 28.7914H6.84297C5.21616 28.7896 3.65649 28.1045 2.50616 26.8865C1.35584 25.6685 0.708803 24.0171 0.707031 22.2946V6.93831C0.708803 5.21581 1.35584 3.56439 2.50616 2.3464C3.65649 1.1284 5.21616 0.443309 6.84297 0.441432H13.9194C14.7255 0.438998 15.5241 0.605945 16.2688 0.932601C17.0136 1.25926 17.6897 1.73913 18.258 2.34443L21.2223 5.48301C21.7938 6.08487 22.247 6.8008 22.5555 7.58934C22.864 8.37788 23.0217 9.22337 23.0195 10.0769ZM19.6727 22.2946V11.0727H15.2102C14.6184 11.0727 14.0509 10.8238 13.6324 10.3807C13.214 9.93767 12.9789 9.33676 12.9789 8.71018V3.98518H6.84297C6.10326 3.98518 5.39385 4.29631 4.8708 4.85013C4.34775 5.40395 4.05391 6.15509 4.05391 6.93831V22.2946C4.05391 23.0778 4.34775 23.8289 4.8708 24.3827C5.39385 24.9366 6.10326 25.2477 6.84297 25.2477H16.8836C17.6233 25.2477 18.3327 24.9366 18.8558 24.3827C19.3788 23.8289 19.6727 23.0778 19.6727 22.2946Z" fill="black"/>
</svg>
