<svg width="29" height="30" viewBox="0 0 29 30" fill="none" xmlns="http://www.w3.org/2000/svg">
<path d="M13.0262 10.1043C13.703 10.8119 13.6782 11.9329 12.9718 12.6098L11.363 14.1513C10.881 14.6332 10.2384 14.8766 9.5911 14.8766C8.93432 14.8766 8.27401 14.6273 7.77197 14.1241C7.74126 14.0946 6.86241 13.0799 6.86241 13.0799C6.22217 12.3393 6.30368 11.2206 7.04432 10.5804C7.78497 9.94132 8.90361 10.0216 9.54385 10.7623L9.65016 10.8851L10.5207 10.05C11.2283 9.37314 12.3481 9.39558 13.0262 10.1043ZM10.5207 17.1387L9.56984 18.0494L9.3076 17.8073C8.5894 17.1422 7.46721 17.1847 6.80335 17.9029C6.13831 18.62 6.18083 19.7421 6.89903 20.4072L7.76961 21.2116C8.25274 21.6959 8.89652 21.9629 9.58047 21.9629C10.2644 21.9629 10.9082 21.6959 11.363 21.24L12.9718 19.6984C13.6782 19.0228 13.703 17.9006 13.0262 17.1942C12.3481 16.4866 11.2283 16.463 10.5207 17.1399V17.1387ZM28.7758 20.7805V25.5055C28.7758 27.4628 27.1894 29.0492 25.232 29.0492H19.3258C17.3685 29.0492 15.782 27.4628 15.782 25.5055V20.7805C15.782 18.8231 17.3685 17.2367 19.3258 17.2367H25.232C27.1894 17.2367 28.7758 18.8231 28.7758 20.7805ZM24.6414 21.9617C24.6414 21.3097 24.1122 20.7805 23.4602 20.7805H21.0977C20.4456 20.7805 19.9164 21.3097 19.9164 21.9617C19.9164 22.6138 20.4456 23.143 21.0977 23.143H23.4602C24.1122 23.143 24.6414 22.6138 24.6414 21.9617ZM16.3727 6.60547H17.5539C19.1828 6.60547 20.507 7.93083 20.507 9.55859V13.1023C20.507 14.0816 21.3008 14.8742 22.2789 14.8742C23.257 14.8742 24.0508 14.0816 24.0508 13.1023V9.55859C24.0508 6.04083 21.2406 3.16685 17.7465 3.06408C17.0826 1.66666 15.6568 0.699219 14.0102 0.699219H10.4664C8.81856 0.699219 7.39397 1.66666 6.73011 3.06408C3.23597 3.16567 0.425781 6.04083 0.425781 9.55859V22.5523C0.425781 26.1339 3.33993 29.0492 6.92266 29.0492H11.6477C12.6269 29.0492 13.4195 28.2554 13.4195 27.2773C13.4195 26.2993 12.6269 25.5055 11.6477 25.5055H6.92266C5.29489 25.5055 3.96953 24.1813 3.96953 22.5523V9.55859C3.96953 7.93083 5.29489 6.60547 6.92266 6.60547H8.10391C9.08316 6.60547 9.87578 5.81285 9.87578 4.83359C9.87578 4.50757 10.1404 4.24297 10.4664 4.24297H14.0102C14.3362 4.24297 14.6008 4.50757 14.6008 4.83359C14.6008 5.81285 15.3934 6.60547 16.3727 6.60547ZM18.2426 13.1023C18.2426 12.1231 17.4488 11.3305 16.4707 11.3305H16.3727C15.3934 11.3305 14.6504 12.1231 14.6504 13.1023C14.6504 14.0816 15.4926 14.8742 16.4719 14.8742C17.4511 14.8742 18.2426 14.0816 18.2426 13.1023Z" fill="black"/>
</svg>
