<svg width="25" height="30" viewBox="0 0 25 30" fill="none" xmlns="http://www.w3.org/2000/svg">
<path d="M6.18555 14.2836C6.18555 13.8137 6.36185 13.363 6.67568 13.0307C6.98951 12.6984 7.41516 12.5117 7.85898 12.5117H11.2059C11.6497 12.5117 12.0753 12.6984 12.3892 13.0307C12.703 13.363 12.8793 13.8137 12.8793 14.2836C12.8793 14.7535 12.703 15.2042 12.3892 15.5365C12.0753 15.8688 11.6497 16.0555 11.2059 16.0555H7.85898C7.41516 16.0555 6.98951 15.8688 6.67568 15.5365C6.36185 15.2042 6.18555 14.7535 6.18555 14.2836ZM7.85898 10.1492H15.6684C16.1122 10.1492 16.5378 9.96254 16.8517 9.63025C17.1655 9.29796 17.3418 8.84727 17.3418 8.37734C17.3418 7.90741 17.1655 7.45673 16.8517 7.12444C16.5378 6.79215 16.1122 6.60547 15.6684 6.60547H7.85898C7.41516 6.60547 6.98951 6.79215 6.67568 7.12444C6.36185 7.45673 6.18555 7.90741 6.18555 8.37734C6.18555 8.84727 6.36185 9.29796 6.67568 9.63025C6.98951 9.96254 7.41516 10.1492 7.85898 10.1492ZM21.8043 24.2935V27.7687C21.8043 28.0215 21.7334 28.2686 21.6008 28.4787C21.4682 28.6889 21.2796 28.8526 21.0591 28.9494C20.8386 29.0461 20.5959 29.0714 20.3617 29.0221C20.1276 28.9728 19.9126 28.8511 19.7437 28.6724L18.4574 27.3104L17.1711 28.6724C17.0023 28.8511 16.7872 28.9728 16.5531 29.0221C16.319 29.0714 16.0763 29.0461 15.8557 28.9494C15.6352 28.8526 15.4467 28.6889 15.314 28.4787C15.1814 28.2686 15.1106 28.0215 15.1105 27.7687V24.2935C14.101 23.489 13.38 22.3448 13.0661 21.0489C12.7522 19.7531 12.864 18.3826 13.3832 17.163C13.9024 15.9433 14.7981 14.947 15.9231 14.3379C17.048 13.7287 18.3352 13.5429 19.573 13.8111V7.19609C19.573 6.41288 19.2792 5.66174 18.7561 5.10792C18.2331 4.5541 17.5237 4.24297 16.784 4.24297L6.75117 4.28786C6.38425 4.28677 6.02073 4.36235 5.68144 4.51027C5.34216 4.65819 5.03377 4.87555 4.77395 5.14988C4.51414 5.42421 4.308 5.75013 4.16735 6.10896C4.02669 6.46779 3.9543 6.85248 3.9543 7.24098V21.3711C3.9543 22.1543 4.24814 22.9055 4.77119 23.4593C5.29424 24.0131 6.00365 24.3242 6.74336 24.3242H11.2059C11.6497 24.3242 12.0753 24.5109 12.3892 24.8432C12.703 25.1755 12.8793 25.6262 12.8793 26.0961C12.8793 26.566 12.703 27.0167 12.3892 27.349C12.0753 27.6813 11.6497 27.868 11.2059 27.868H6.74336C5.11664 27.8658 3.55714 27.1806 2.40688 25.9627C1.25661 24.7447 0.609488 23.0935 0.607422 21.3711V7.24098C0.609488 5.51858 1.25661 3.86734 2.40688 2.64941C3.55714 1.43149 5.11664 0.746294 6.74336 0.744106L16.7762 0.699219C18.4041 0.699842 19.9652 1.38427 21.117 2.6023C22.2689 3.82033 22.9173 5.47245 22.9199 7.19609V16.0921C23.3593 16.7065 23.6792 17.4071 23.861 18.1534C24.0429 18.8996 24.0831 19.6766 23.9793 20.4394C23.8755 21.2022 23.6299 21.9356 23.2565 22.5972C22.8832 23.2588 22.3896 23.8353 21.8043 24.2935ZM16.2262 19.5992C16.2262 20.0665 16.357 20.5232 16.6022 20.9118C16.8474 21.3003 17.1959 21.6031 17.6036 21.7819C18.0113 21.9607 18.4599 22.0075 18.8927 21.9163C19.3255 21.8252 19.7231 21.6002 20.0352 21.2698C20.3472 20.9394 20.5597 20.5184 20.6458 20.0601C20.7319 19.6018 20.6877 19.1268 20.5188 18.6951C20.3499 18.2634 20.064 17.8945 19.697 17.6349C19.3301 17.3753 18.8987 17.2367 18.4574 17.2367C17.8657 17.2367 17.2981 17.4856 16.8797 17.9287C16.4612 18.3717 16.2262 18.9726 16.2262 19.5992Z" fill="black"/>
</svg>
