<svg width="29" height="28" viewBox="0 0 29 28" fill="none" xmlns="http://www.w3.org/2000/svg">
<path d="M28.726 19.943C28.7342 20.3863 28.4803 20.7929 28.0727 20.9915L23.6998 23.1173L21.5133 27.3688C21.3125 27.7581 20.9026 28.0039 20.456 28.0039H20.4336C19.9776 27.9959 19.5689 27.734 19.3799 27.3309L14.7211 17.3682C14.3844 16.43 14.5994 15.5227 15.2432 14.8979C15.8858 14.272 16.819 14.0653 17.6789 14.3478C17.7144 14.3605 28.0326 18.9186 28.0326 18.9186C28.4472 19.1012 28.7177 19.4997 28.726 19.943ZM15.9011 25.165C16.3488 25.676 16.4492 26.3938 16.1598 27.0036C15.8693 27.6134 15.242 28.0039 14.551 28.0039C6.73464 28.0039 0.375977 21.8219 0.375977 14.2227C0.375977 6.67398 6.80552 0.521797 14.551 0.441406C22.3673 0.441406 28.726 6.62345 28.726 14.2227C28.726 15.1747 27.9334 15.9453 26.9541 15.9453C25.9748 15.9453 25.1822 15.1747 25.1822 14.2227C25.1822 9.80577 22.3118 6.03659 18.2932 4.56085C19.1602 6.11009 20.0544 8.08655 20.5777 10.3329C20.8766 11.6169 19.5737 12.7102 18.2932 12.2841C17.7132 12.0912 17.256 11.6318 17.119 11.0518C16.5473 8.62632 15.444 6.54995 14.5533 5.15345C13.2906 7.1368 11.5979 10.4902 11.5979 14.2227C11.5979 20.1807 15.8574 25.1156 15.9011 25.165ZM4.0792 12.5H8.14624C8.47935 9.35902 9.66296 6.59244 10.8017 4.56315C7.32173 5.8448 4.71471 8.84567 4.0792 12.5ZM10.8076 23.8971C9.66769 21.8678 8.48998 19.0909 8.15569 15.9453H4.07093C4.70526 19.6042 7.32173 22.6177 10.8076 23.8971Z" fill="black"/>
</svg>
