<svg width="29" height="29" viewBox="0 0 29 29" fill="none" xmlns="http://www.w3.org/2000/svg">
<path d="M28.7758 14.6152C28.7758 22.435 22.4207 28.7902 14.6008 28.7902C6.78091 28.7902 0.425781 22.435 0.425781 14.6152C0.425781 6.79528 6.78091 0.440154 14.6008 0.440154C14.8252 0.440154 15.0497 0.440154 15.2741 0.451966C16.2545 0.499216 17.0105 1.32609 16.9633 2.30653C16.916 3.28697 16.1128 4.01934 15.1087 3.99572C14.9433 3.99572 14.7662 3.9839 14.6008 3.9839C8.74178 3.9839 3.96953 8.75616 3.96953 14.6152C3.96953 20.4742 8.74178 25.2464 14.6008 25.2464C20.4598 25.2464 25.232 20.4742 25.232 14.6152C25.232 14.4498 25.232 14.2726 25.2202 14.1072C25.173 13.1268 25.929 12.2999 26.9094 12.2527C27.9135 12.2172 28.7167 12.9614 28.764 13.9418C28.764 14.1663 28.7758 14.3907 28.7758 14.6152ZM13.3132 10.0673C14.2582 9.79565 14.8016 8.82703 14.5417 7.88203C14.2818 6.93703 13.2896 6.39365 12.3564 6.65353C8.81266 7.65759 6.34384 10.9297 6.34384 14.6152C6.34384 19.1748 10.053 22.8839 14.6126 22.8839C18.2981 22.8839 21.5702 20.4151 22.5742 16.8713C22.8459 15.9263 22.2907 14.9459 21.3457 14.686C20.4007 14.4143 19.4203 14.9695 19.1604 15.9145C18.5934 17.9345 16.7152 19.352 14.6126 19.352C12.002 19.352 9.8876 17.2375 9.8876 14.627C9.8876 12.5243 11.3051 10.6462 13.325 10.0792L13.3132 10.0673ZM13.3487 13.363C12.6517 14.06 12.6517 15.1822 13.3487 15.8673C13.6912 16.2098 14.1519 16.387 14.6008 16.387C15.0497 16.387 15.5103 16.2098 15.8529 15.8673L21.83 9.89015H24.6414C25.1139 9.89015 25.5628 9.70115 25.8935 9.37041L28.256 7.0079C28.764 6.49997 28.9175 5.74397 28.6458 5.08247C28.3742 4.42097 27.7245 3.9839 27.0039 3.9839H25.232V2.21203C25.232 1.49147 24.795 0.853591 24.1335 0.570091C23.472 0.298404 22.7042 0.451966 22.208 0.959904L19.8455 3.3224C19.5148 3.65315 19.3258 4.10203 19.3258 4.57453V7.3859L13.3487 13.363Z" fill="black"/>
</svg>
