<svg width="119" height="19" viewBox="0 0 119 19" fill="none" xmlns="http://www.w3.org/2000/svg">
<path d="M8.4408 2.42238C8.71581 1.79255 9.60919 1.79255 9.8842 2.42238L11.3401 5.75665C11.4543 6.0182 11.7011 6.19749 11.9851 6.22528L15.6061 6.57955C16.29 6.64647 16.5661 7.49613 16.0521 7.95231L13.3309 10.3673C13.1174 10.5567 13.0232 10.8468 13.0845 11.1255L13.8665 14.6787C14.0143 15.3499 13.2915 15.8751 12.6988 15.5272L9.56114 13.6854C9.31502 13.541 9.00998 13.541 8.76386 13.6854L5.6262 15.5272C5.03351 15.8751 4.31075 15.3499 4.45846 14.6788L5.24047 11.1255C5.30181 10.8468 5.20755 10.5567 4.99409 10.3673L2.27291 7.95231C1.75889 7.49613 2.03496 6.64647 2.71895 6.57955L6.33991 6.22528C6.62395 6.19749 6.87072 6.0182 6.98493 5.75665L8.4408 2.42238Z" fill="#FFB245"/>
<path d="M33.64 2.42238C33.915 1.79255 34.8084 1.79255 35.0834 2.42238L36.5393 5.75665C36.6535 6.0182 36.9003 6.19749 37.1843 6.22528L40.8053 6.57955C41.4893 6.64647 41.7653 7.49613 41.2513 7.95231L38.5301 10.3673C38.3167 10.5567 38.2224 10.8468 38.2838 11.1255L39.0658 14.6787C39.2135 15.3499 38.4907 15.8751 37.898 15.5272L34.7604 13.6854C34.5142 13.541 34.2092 13.541 33.9631 13.6854L30.8254 15.5272C30.2327 15.8751 29.51 15.3499 29.6577 14.6788L30.4397 11.1255C30.501 10.8468 30.4068 10.5567 30.1933 10.3673L27.4721 7.95231C26.9581 7.49613 27.2342 6.64647 27.9182 6.57955L31.5391 6.22528C31.8232 6.19749 32.0699 6.0182 32.1841 5.75665L33.64 2.42238Z" fill="#FFB245"/>
<path d="M58.8412 2.42238C59.1162 1.79255 60.0096 1.79255 60.2846 2.42238L61.7405 5.75665C61.8547 6.0182 62.1014 6.19749 62.3855 6.22528L66.0064 6.57955C66.6904 6.64647 66.9665 7.49613 66.4525 7.95231L63.7313 10.3673C63.5178 10.5567 63.4236 10.8468 63.4849 11.1255L64.2669 14.6787C64.4146 15.3499 63.6919 15.8751 63.0992 15.5272L59.9615 13.6854C59.7154 13.541 59.4104 13.541 59.1642 13.6854L56.0266 15.5272C55.4339 15.8751 54.7111 15.3499 54.8589 14.6788L55.6409 11.1255C55.7022 10.8468 55.6079 10.5567 55.3945 10.3673L52.6733 7.95231C52.1593 7.49613 52.4353 6.64647 53.1193 6.57955L56.7403 6.22528C57.0243 6.19749 57.2711 6.0182 57.3853 5.75665L58.8412 2.42238Z" fill="#FFB245"/>
<path d="M84.0404 2.42238C84.3154 1.79255 85.2088 1.79255 85.4838 2.42238L86.9397 5.75665C87.0539 6.0182 87.3007 6.19749 87.5847 6.22528L91.2057 6.57955C91.8897 6.64647 92.1657 7.49613 91.6517 7.95231L88.9305 10.3673C88.7171 10.5567 88.6228 10.8468 88.6841 11.1255L89.4661 14.6787C89.6139 15.3499 88.8911 15.8751 88.2984 15.5272L85.1608 13.6854C84.9146 13.541 84.6096 13.541 84.3635 13.6854L81.2258 15.5272C80.6331 15.8751 79.9104 15.3499 80.0581 14.6788L80.8401 11.1255C80.9014 10.8468 80.8072 10.5567 80.5937 10.3673L77.8725 7.95231C77.3585 7.49613 77.6346 6.64647 78.3186 6.57955L81.9395 6.22528C82.2236 6.19749 82.4703 6.0182 82.5845 5.75665L84.0404 2.42238Z" fill="#FFB245"/>
<path d="M109.242 2.42238C109.517 1.79255 110.41 1.79255 110.685 2.42238L112.141 5.75665C112.255 6.0182 112.502 6.19749 112.786 6.22528L116.407 6.57955C117.091 6.64647 117.367 7.49613 116.853 7.95231L114.132 10.3673C113.918 10.5567 113.824 10.8468 113.885 11.1255L114.667 14.6787C114.815 15.3499 114.092 15.8751 113.5 15.5272L110.362 13.6854C110.116 13.541 109.811 13.541 109.565 13.6854L106.427 15.5272C105.834 15.8751 105.112 15.3499 105.259 14.6788L106.041 11.1255C106.103 10.8468 106.008 10.5567 105.795 10.3673L103.074 7.95231C102.56 7.49613 102.836 6.64647 103.52 6.57955L107.141 6.22528C107.425 6.19749 107.672 6.0182 107.786 5.75665L109.242 2.42238Z" fill="#FFB245"/>
</svg>
