<svg width="36" height="36" viewBox="0 0 36 36" fill="none" xmlns="http://www.w3.org/2000/svg">
<path d="M13.5452 12.2724C13.1937 11.9209 12.6239 11.9209 12.2724 12.2724C11.9209 12.6239 11.9209 13.1937 12.2724 13.5452L16.7272 18L12.2724 22.4548C11.9209 22.8061 11.9209 23.376 12.2724 23.7276C12.6239 24.0791 13.1937 24.0791 13.5452 23.7276L18 19.2727L22.4548 23.7276C22.8061 24.0789 23.376 24.0789 23.7276 23.7276C24.0789 23.376 24.0789 22.8061 23.7276 22.4548L19.2727 18L23.7276 13.5452C24.0789 13.1938 24.0789 12.6239 23.7276 12.2724C23.376 11.921 22.8061 11.921 22.4548 12.2724L18 16.7272L13.5452 12.2724Z" fill="black"/>
</svg>
