<svg width="148" height="148" viewBox="0 0 148 148" fill="none" xmlns="http://www.w3.org/2000/svg">
<path d="M104.833 55.5123C118.246 55.5863 125.51 56.1845 130.246 60.9205C135.667 66.341 135.667 75.0607 135.667 92.5V98.6667C135.667 116.112 135.667 124.832 130.246 130.252C124.832 135.667 116.106 135.667 98.6667 135.667H49.3334C31.894 135.667 23.1682 135.667 17.7539 130.252C12.3334 124.826 12.3334 116.112 12.3334 98.6667V92.5C12.3334 75.0607 12.3334 66.341 17.7539 60.9205C22.4899 56.1845 29.7542 55.5863 43.1667 55.5123" stroke="black" stroke-width="1.5" stroke-linecap="round"/>
<path d="M74 92.5V12.3333M74 12.3333L92.5 33.9167M74 12.3333L55.5 33.9167" stroke="black" stroke-width="1.5" stroke-linecap="round" stroke-linejoin="round"/>
</svg>
