<svg width="20" height="21" viewBox="0 0 20 21" fill="none" xmlns="http://www.w3.org/2000/svg">
<path d="M4.69377 16.6495C4.38983 16.65 4.08717 16.6101 3.79377 16.5307C2.91309 16.2796 2.16592 15.6933 1.71256 14.8975C1.25921 14.1018 1.13578 13.1601 1.36877 12.2745L2.82502 6.74947C2.93843 6.30233 3.14005 5.88235 3.41803 5.51422C3.69601 5.14608 4.04475 4.8372 4.44377 4.60572C4.83229 4.38069 5.2616 4.23499 5.70683 4.17705C6.15206 4.11912 6.60435 4.15011 7.03752 4.26822C7.49799 4.39609 7.92686 4.61822 8.29697 4.92055C8.66707 5.22287 8.97033 5.59879 9.18752 6.02447H10.8125C11.0288 5.59811 11.3317 5.22164 11.702 4.9192C12.0722 4.61676 12.5016 4.39503 12.9625 4.26822C13.3957 4.15011 13.848 4.11912 14.2932 4.17705C14.7384 4.23499 15.1678 4.38069 15.5563 4.60572C15.9534 4.83661 16.3008 5.14379 16.5786 5.50957C16.8565 5.87536 17.0591 6.2925 17.175 6.73697L18.6313 12.2745C18.8677 13.1627 18.7453 14.1083 18.2904 14.9071C17.8355 15.7058 17.0846 16.2935 16.2 16.5432C15.7669 16.6613 15.3146 16.6923 14.8693 16.6344C14.4241 16.5765 13.9948 16.4308 13.6063 16.2057C13.2085 15.9757 12.8606 15.6687 12.5827 15.3028C12.3047 14.9369 12.1024 14.5194 11.9875 14.0745L11.875 13.5245H8.12502L7.98127 14.062C7.86636 14.5069 7.66405 14.9244 7.38614 15.2903C7.10822 15.6562 6.76026 15.9632 6.36252 16.1932C5.8547 16.4861 5.27998 16.6432 4.69377 16.6495ZM6.14377 5.39947C5.76661 5.40075 5.39622 5.49981 5.06877 5.68697C4.55556 5.98808 4.18251 6.48023 4.03127 7.05572L2.57502 12.5807C2.42264 13.1499 2.49964 13.7562 2.78947 14.2693C3.0793 14.7823 3.55884 15.1612 4.12502 15.3245C4.39846 15.3991 4.68398 15.4187 4.96505 15.3822C5.24613 15.3457 5.51718 15.2539 5.76252 15.112C6.01796 14.9645 6.24134 14.7674 6.41951 14.5324C6.59768 14.2973 6.72705 14.029 6.80002 13.7432L7.18752 12.2745H12.8125L13.1938 13.7432C13.268 14.0285 13.3979 14.2962 13.576 14.5311C13.754 14.766 13.9767 14.9634 14.2313 15.112C14.4778 15.2537 14.7499 15.3455 15.032 15.3819C15.314 15.4184 15.6005 15.3989 15.875 15.3245C16.4419 15.1627 16.922 14.7838 17.2111 14.27C17.5001 13.7563 17.5748 13.1492 17.4188 12.5807L15.9625 7.05572C15.89 6.77059 15.7614 6.50274 15.5844 6.26776C15.4073 6.03278 15.1853 5.83535 14.9313 5.68697C14.6847 5.5452 14.4126 5.45345 14.1306 5.41699C13.8485 5.38053 13.562 5.40006 13.2875 5.47447C12.9481 5.57124 12.6366 5.7476 12.3789 5.98892C12.1213 6.23024 11.925 6.52954 11.8063 6.86197L11.6563 7.27447H8.34377L8.19377 6.86197C8.07399 6.5291 7.87656 6.22959 7.61787 5.98828C7.35917 5.74698 7.04666 5.57083 6.70627 5.47447C6.52285 5.42501 6.33374 5.3998 6.14377 5.39947Z" fill="black"/>
<path d="M6.25 10.4001C6.00277 10.4001 5.7611 10.3268 5.55554 10.1895C5.34998 10.0521 5.18976 9.85691 5.09515 9.6285C5.00054 9.40009 4.97579 9.14876 5.02402 8.90628C5.07225 8.66381 5.1913 8.44108 5.36612 8.26626C5.54093 8.09145 5.76366 7.9724 6.00614 7.92417C6.24861 7.87593 6.49995 7.90069 6.72835 7.9953C6.95676 8.08991 7.15199 8.25012 7.28934 8.45568C7.42669 8.66125 7.5 8.90292 7.5 9.15015C7.5 9.48167 7.3683 9.79961 7.13388 10.034C6.89946 10.2685 6.58152 10.4001 6.25 10.4001Z" fill="black"/>
<path d="M13.75 8.52539C14.0952 8.52539 14.375 8.24557 14.375 7.90039C14.375 7.55521 14.0952 7.27539 13.75 7.27539C13.4048 7.27539 13.125 7.55521 13.125 7.90039C13.125 8.24557 13.4048 8.52539 13.75 8.52539Z" fill="black"/>
<path d="M13.75 11.0251C14.0952 11.0251 14.375 10.7453 14.375 10.4001C14.375 10.055 14.0952 9.77515 13.75 9.77515C13.4048 9.77515 13.125 10.055 13.125 10.4001C13.125 10.7453 13.4048 11.0251 13.75 11.0251Z" fill="black"/>
<path d="M12.5 9.77588C12.8452 9.77588 13.125 9.49606 13.125 9.15088C13.125 8.8057 12.8452 8.52588 12.5 8.52588C12.1548 8.52588 11.875 8.8057 11.875 9.15088C11.875 9.49606 12.1548 9.77588 12.5 9.77588Z" fill="black"/>
<path d="M15 9.77588C15.3452 9.77588 15.625 9.49606 15.625 9.15088C15.625 8.8057 15.3452 8.52588 15 8.52588C14.6548 8.52588 14.375 8.8057 14.375 9.15088C14.375 9.49606 14.6548 9.77588 15 9.77588Z" fill="black"/>
</svg>
