<svg width="34" height="34" viewBox="0 0 34 34" fill="none" xmlns="http://www.w3.org/2000/svg">
<g clip-path="url(#clip0_2464_263)">
<path d="M15.4062 23.9969L12.9699 21.5605L11.4675 23.0629L15.4062 27.0016L22.5324 19.8754L21.03 18.373L15.4062 23.9969Z" fill="#0CC875"/>
<path d="M25.5 14.3077V10.625C25.5 8.37066 24.6044 6.20865 23.0104 4.61459C21.4164 3.02054 19.2543 2.125 17 2.125C14.7457 2.125 12.5836 3.02054 10.9896 4.61459C9.39554 6.20865 8.50001 8.37066 8.50001 10.625V14.3087C6.93324 15.9689 5.88694 18.0515 5.49029 20.2996C5.09364 22.5477 5.36401 24.8626 6.26802 26.9588C7.17202 29.0549 8.67008 30.8405 10.5773 32.0949C12.4845 33.3494 14.7172 34.0179 17 34.0179C19.2828 34.0179 21.5155 33.3494 23.4227 32.0949C25.3299 30.8405 26.828 29.0549 27.732 26.9588C28.636 24.8626 28.9063 22.5477 28.5097 20.2996C28.1131 18.0515 27.0668 15.9679 25.5 14.3077ZM10.625 10.625C10.625 8.93425 11.2967 7.31274 12.4922 6.11719C13.6877 4.92165 15.3093 4.25 17 4.25C18.6907 4.25 20.3123 4.92165 21.5078 6.11719C22.7034 7.31274 23.375 8.93425 23.375 10.625V12.5248C21.48 11.2852 19.2645 10.625 17 10.625C14.7355 10.625 12.5202 11.2852 10.625 12.5248V10.625ZM17 31.875C15.1087 31.875 13.2599 31.3141 11.6874 30.2634C10.1148 29.2127 8.88918 27.7192 8.16541 25.9719C7.44165 24.2245 7.25228 22.3018 7.62125 20.4469C7.99022 18.592 8.90096 16.8881 10.2383 15.5508C11.5756 14.2135 13.2795 13.3027 15.1344 12.9337C16.9893 12.5648 18.912 12.7542 20.6594 13.4779C22.4067 14.2017 23.9002 15.4273 24.9509 16.9999C26.0017 18.5724 26.5625 20.4212 26.5625 22.3125C26.5625 24.8487 25.5551 27.2809 23.7617 29.0742C21.9684 30.8676 19.5362 31.875 17 31.875Z" fill="#0CC875"/>
</g>
<defs>
<clipPath id="clip0_2464_263">
<rect width="34" height="34" fill="white"/>
</clipPath>
</defs>
</svg>
