<svg width="24" height="25" viewBox="0 0 24 25" fill="none" xmlns="http://www.w3.org/2000/svg">
<path fill-rule="evenodd" clip-rule="evenodd" d="M18 12.3C18 15.9451 15.0451 18.9 11.4 18.9C7.75489 18.9 4.79998 15.9451 4.79998 12.3C4.79998 8.65492 7.75489 5.7 11.4 5.7C15.0451 5.7 18 8.65492 18 12.3ZM16.4749 18.2234C15.1107 19.3933 13.3379 20.1 11.4 20.1C7.09216 20.1 3.59998 16.6079 3.59998 12.3C3.59998 7.99218 7.09216 4.5 11.4 4.5C15.7079 4.5 19.2 7.99218 19.2 12.3C19.2 14.238 18.4932 16.0109 17.3234 17.3749L20.8242 20.8758L19.9757 21.7243L16.4749 18.2234Z" fill="black"/>
</svg>
