<svg width="20" height="20" viewBox="0 0 20 20" fill="none" xmlns="http://www.w3.org/2000/svg">
<path d="M19.6552 8.18182H18.5L16.0147 0.810232C15.9332 0.568507 15.8002 0.363212 15.6319 0.219354C15.4635 0.075497 15.267 -0.000713811 15.0664 5.03878e-06H4.93103C4.73039 -0.000713811 4.53392 0.075497 4.36555 0.219354C4.19718 0.363212 4.06419 0.568507 3.98276 0.810232L1.5 8.18182H0.344828C0.253374 8.18182 0.165665 8.22971 0.100998 8.31495C0.0363299 8.4002 0 8.51581 0 8.63637C0 8.75692 0.0363299 8.87254 0.100998 8.95778C0.165665 9.04302 0.253374 9.09091 0.344828 9.09091H1.37931V18.6364C1.37931 18.998 1.4883 19.3449 1.6823 19.6006C1.87631 19.8563 2.13943 20 2.41379 20H4.48276C4.75712 20 5.02025 19.8563 5.21425 19.6006C5.40825 19.3449 5.51724 18.998 5.51724 18.6364V16.3636H14.4828V18.6364C14.4828 18.998 14.5917 19.3449 14.7858 19.6006C14.9798 19.8563 15.2429 20 15.5172 20H17.5862C17.8606 20 18.1237 19.8563 18.3177 19.6006C18.5117 19.3449 18.6207 18.998 18.6207 18.6364V9.09091H19.6552C19.7466 9.09091 19.8343 9.04302 19.899 8.95778C19.9637 8.87254 20 8.75692 20 8.63637C20 8.51581 19.9637 8.4002 19.899 8.31495C19.8343 8.22971 19.7466 8.18182 19.6552 8.18182ZM4.61552 1.17955C4.64258 1.09902 4.6868 1.03059 4.74282 0.982578C4.79883 0.934564 4.86422 0.909036 4.93103 0.909096H15.069C15.1358 0.909036 15.2012 0.934564 15.2572 0.982578C15.3132 1.03059 15.3574 1.09902 15.3845 1.17955L17.7448 8.18182H2.25517L4.61552 1.17955ZM4.82759 18.6364C4.82759 18.7569 4.79126 18.8725 4.72659 18.9578C4.66192 19.043 4.57421 19.0909 4.48276 19.0909H2.41379C2.32234 19.0909 2.23463 19.043 2.16996 18.9578C2.1053 18.8725 2.06897 18.7569 2.06897 18.6364V16.3636H4.82759V18.6364ZM17.5862 19.0909H15.5172C15.4258 19.0909 15.3381 19.043 15.2734 18.9578C15.2087 18.8725 15.1724 18.7569 15.1724 18.6364V16.3636H17.931V18.6364C17.931 18.7569 17.8947 18.8725 17.83 18.9578C17.7654 19.043 17.6777 19.0909 17.5862 19.0909ZM17.931 15.4545H2.06897V9.09091H17.931V15.4545ZM4.13793 12.2727C4.13793 12.1522 4.17426 12.0366 4.23893 11.9513C4.3036 11.8661 4.3913 11.8182 4.48276 11.8182H5.86207C5.95352 11.8182 6.04123 11.8661 6.1059 11.9513C6.17057 12.0366 6.2069 12.1522 6.2069 12.2727C6.2069 12.3933 6.17057 12.5089 6.1059 12.5941C6.04123 12.6794 5.95352 12.7273 5.86207 12.7273H4.48276C4.3913 12.7273 4.3036 12.6794 4.23893 12.5941C4.17426 12.5089 4.13793 12.3933 4.13793 12.2727ZM13.7931 12.2727C13.7931 12.1522 13.8294 12.0366 13.8941 11.9513C13.9588 11.8661 14.0465 11.8182 14.1379 11.8182H15.5172C15.6087 11.8182 15.6964 11.8661 15.7611 11.9513C15.8257 12.0366 15.8621 12.1522 15.8621 12.2727C15.8621 12.3933 15.8257 12.5089 15.7611 12.5941C15.6964 12.6794 15.6087 12.7273 15.5172 12.7273H14.1379C14.0465 12.7273 13.9588 12.6794 13.8941 12.5941C13.8294 12.5089 13.7931 12.3933 13.7931 12.2727Z" fill="black"/>
</svg>
