<svg width="24" height="25" viewBox="0 0 24 25" fill="none" xmlns="http://www.w3.org/2000/svg">
<path d="M18.435 6.86533H17.005V5.96533C17.005 5.30229 16.7416 4.66641 16.2728 4.19757C15.8039 3.72872 15.168 3.46533 14.505 3.46533H9.505C8.84196 3.46533 8.20608 3.72872 7.73724 4.19757C7.26839 4.66641 7.005 5.30229 7.005 5.96533V6.86533H5.565C4.90196 6.86533 4.26608 7.12872 3.79724 7.59757C3.32839 8.06641 3.065 8.70229 3.065 9.36533V18.8353C3.065 19.4984 3.32839 20.1343 3.79724 20.6031C4.26608 21.0719 4.90196 21.3353 5.565 21.3353H18.435C18.7633 21.3353 19.0884 21.2707 19.3917 21.145C19.695 21.0194 19.9706 20.8352 20.2028 20.6031C20.4349 20.371 20.6191 20.0954 20.7447 19.792C20.8703 19.4887 20.935 19.1636 20.935 18.8353V9.36533C20.935 9.03703 20.8703 8.71194 20.7447 8.40862C20.6191 8.10531 20.4349 7.82971 20.2028 7.59757C19.9706 7.36542 19.695 7.18127 19.3917 7.05563C19.0884 6.93 18.7633 6.86533 18.435 6.86533ZM8.005 5.96533C8.005 5.56751 8.16304 5.18598 8.44434 4.90467C8.72565 4.62337 9.10718 4.46533 9.505 4.46533H14.505C14.9028 4.46533 15.2844 4.62337 15.5657 4.90467C15.847 5.18598 16.005 5.56751 16.005 5.96533V6.86533H8.005V5.96533ZM19.935 18.8353C19.935 19.2332 19.777 19.6147 19.4957 19.896C19.2144 20.1773 18.8328 20.3353 18.435 20.3353H5.565C5.16718 20.3353 4.78565 20.1773 4.50434 19.896C4.22304 19.6147 4.065 19.2332 4.065 18.8353V9.36533C4.065 8.96751 4.22304 8.58598 4.50434 8.30467C4.78565 8.02337 5.16718 7.86533 5.565 7.86533H18.435C18.8328 7.86533 19.2144 8.02337 19.4957 8.30467C19.777 8.58598 19.935 8.96751 19.935 9.36533V18.8353Z" fill="black"/>
<path d="M14.505 14.0754C14.505 14.208 14.4523 14.3352 14.3586 14.429C14.2648 14.5228 14.1376 14.5754 14.005 14.5754H12.505V16.0754C12.505 16.208 12.4523 16.3352 12.3586 16.429C12.2648 16.5228 12.1376 16.5754 12.005 16.5754C11.8724 16.5754 11.7452 16.5228 11.6515 16.429C11.5577 16.3352 11.505 16.208 11.505 16.0754V14.5754H10.005C9.8724 14.5754 9.74522 14.5228 9.65145 14.429C9.55768 14.3352 9.505 14.208 9.505 14.0754C9.505 13.9428 9.55768 13.8157 9.65145 13.7219C9.74522 13.6281 9.8724 13.5754 10.005 13.5754H11.505V12.0754C11.505 11.9428 11.5577 11.8157 11.6515 11.7219C11.7452 11.6281 11.8724 11.5754 12.005 11.5754C12.137 11.5775 12.263 11.6308 12.3563 11.7242C12.4496 11.8175 12.5029 11.9435 12.505 12.0754V13.5754H14.005C14.137 13.5775 14.263 13.6308 14.3563 13.7242C14.4496 13.8175 14.5029 13.9435 14.505 14.0754Z" fill="black"/>
</svg>
