<svg width="24" height="25" viewBox="0 0 24 25" fill="none" xmlns="http://www.w3.org/2000/svg">
<path d="M7.44601 16.9544L4.82301 15.5304L5.41201 14.9414L7.73801 15.2914L11.888 11.1414L4.53101 7.16144L5.27701 6.39544L14.327 8.69144L17.27 5.74044C17.4633 5.54711 17.6927 5.45044 17.958 5.45044C18.2227 5.45044 18.4517 5.54711 18.645 5.74044C18.8383 5.93377 18.935 6.16644 18.935 6.43844C18.935 6.70911 18.8383 6.94144 18.645 7.13544L15.725 10.0924L18.003 19.1234L17.257 19.8884L13.257 12.5314L9.14501 16.6424L9.47501 18.9884L8.86801 19.5964L7.44601 16.9544Z" fill="black"/>
</svg>
