<svg width="24" height="25" viewBox="0 0 24 25" fill="none" xmlns="http://www.w3.org/2000/svg">
<path d="M10 5.40039L12 3.40039M8 16.4004L16 8.40039M12 21.4004L14 19.4004M16.5 19.4004C17.163 19.4004 17.7989 19.137 18.2678 18.6682C18.7366 18.1993 19 17.5634 19 16.9004C19 16.2373 18.7366 15.6015 18.2678 15.1326C17.7989 14.6638 17.163 14.4004 16.5 14.4004C15.837 14.4004 15.2011 14.6638 14.7322 15.1326C14.2634 15.6015 14 16.2373 14 16.9004C14 17.5634 14.2634 18.1993 14.7322 18.6682C15.2011 19.137 15.837 19.4004 16.5 19.4004ZM7.5 10.4004C8.16304 10.4004 8.79893 10.137 9.26777 9.66816C9.73661 9.19932 10 8.56343 10 7.90039C10 7.23735 9.73661 6.60146 9.26777 6.13262C8.79893 5.66378 8.16304 5.40039 7.5 5.40039C6.83696 5.40039 6.20107 5.66378 5.73223 6.13262C5.26339 6.60146 5 7.23735 5 7.90039C5 8.56343 5.26339 9.19932 5.73223 9.66816C6.20107 10.137 6.83696 10.4004 7.5 10.4004ZM5.5 21.4004C6.16304 21.4004 6.79893 21.137 7.26777 20.6682C7.73661 20.1993 8 19.5634 8 18.9004C8 18.2373 7.73661 17.6015 7.26777 17.1326C6.79893 16.6638 6.16304 16.4004 5.5 16.4004C4.83696 16.4004 4.20107 16.6638 3.73223 17.1326C3.26339 17.6015 3 18.2373 3 18.9004C3 19.5634 3.26339 20.1993 3.73223 20.6682C4.20107 21.137 4.83696 21.4004 5.5 21.4004ZM18.5 8.40039C19.163 8.40039 19.7989 8.137 20.2678 7.66816C20.7366 7.19932 21 6.56343 21 5.90039C21 5.23735 20.7366 4.60146 20.2678 4.13262C19.7989 3.66378 19.163 3.40039 18.5 3.40039C17.837 3.40039 17.2011 3.66378 16.7322 4.13262C16.2634 4.60146 16 5.23735 16 5.90039C16 6.56343 16.2634 7.19932 16.7322 7.66816C17.2011 8.137 17.837 8.40039 18.5 8.40039Z" stroke="black" stroke-width="2" stroke-linecap="round" stroke-linejoin="round"/>
</svg>
