<svg width="24" height="25" viewBox="0 0 24 25" fill="none" xmlns="http://www.w3.org/2000/svg">
<path d="M6.818 22.4004V19.5434C6.52 16.5664 3 14.9724 3 10.4004C3 5.83045 5.727 2.34445 11.182 2.40045C15.109 2.44245 18.818 4.68645 18.818 9.25845L21 12.6864C21 14.9724 18.818 14.9724 18.818 14.9724C18.818 14.9724 19.364 20.6864 14.454 20.6864V22.4004" stroke="black" stroke-width="1.5" stroke-linecap="round" stroke-linejoin="round"/>
<path d="M11 12.4004C11.5304 12.4004 12.0391 12.1897 12.4142 11.8146C12.7893 11.4395 13 10.9308 13 10.4004C13 9.86996 12.7893 9.36125 12.4142 8.98618C12.0391 8.6111 11.5304 8.40039 11 8.40039C10.4696 8.40039 9.96086 8.6111 9.58579 8.98618C9.21071 9.36125 9 9.86996 9 10.4004C9 10.9308 9.21071 11.4395 9.58579 11.8146C9.96086 12.1897 10.4696 12.4004 11 12.4004Z" stroke="black" stroke-width="1.5" stroke-linecap="round" stroke-linejoin="round"/>
<path d="M11 13.4004C11.7956 13.4004 12.5587 13.0843 13.1213 12.5217C13.6839 11.9591 14 11.196 14 10.4004C14 9.60474 13.6839 8.84168 13.1213 8.27907C12.5587 7.71646 11.7956 7.40039 11 7.40039C10.2044 7.40039 9.44129 7.71646 8.87868 8.27907C8.31607 8.84168 8 9.60474 8 10.4004C8 11.196 8.31607 11.9591 8.87868 12.5217C9.44129 13.0843 10.2044 13.4004 11 13.4004Z" stroke="black" stroke-width="1.5" stroke-linecap="round" stroke-linejoin="round"/>
</svg>
