<svg width="20" height="21" viewBox="0 0 20 21" fill="none" xmlns="http://www.w3.org/2000/svg">
<path d="M9.09091 7.67312H12.7273C12.9684 7.67312 13.1996 7.57734 13.3701 7.40685C13.5406 7.23636 13.6364 7.00513 13.6364 6.76403C13.6364 6.52292 13.5406 6.29169 13.3701 6.1212C13.1996 5.95071 12.9684 5.85493 12.7273 5.85493H10.9091V4.94584C10.9091 4.70474 10.8133 4.47351 10.6428 4.30302C10.4723 4.13253 10.2411 4.03675 10 4.03675C9.7589 4.03675 9.52767 4.13253 9.35718 4.30302C9.18669 4.47351 9.09091 4.70474 9.09091 4.94584V5.85493C8.36759 5.85493 7.6739 6.14227 7.16244 6.65373C6.65098 7.1652 6.36364 7.85889 6.36364 8.58221C6.36364 9.30552 6.65098 9.99922 7.16244 10.5107C7.6739 11.0221 8.36759 11.3095 9.09091 11.3095H10.9091C11.1502 11.3095 11.3814 11.4053 11.5519 11.5757C11.7224 11.7462 11.8182 11.9775 11.8182 12.2186C11.8182 12.4597 11.7224 12.6909 11.5519 12.8614C11.3814 13.0319 11.1502 13.1277 10.9091 13.1277H7.27273C7.03162 13.1277 6.80039 13.2234 6.62991 13.3939C6.45942 13.5644 6.36364 13.7956 6.36364 14.0367C6.36364 14.2779 6.45942 14.5091 6.62991 14.6796C6.80039 14.8501 7.03162 14.9458 7.27273 14.9458H9.09091V15.8549C9.09091 16.096 9.18669 16.3273 9.35718 16.4978C9.52767 16.6682 9.7589 16.764 10 16.764C10.2411 16.764 10.4723 16.6682 10.6428 16.4978C10.8133 16.3273 10.9091 16.096 10.9091 15.8549V14.9458C11.6324 14.9458 12.3261 14.6585 12.8376 14.147C13.349 13.6356 13.6364 12.9419 13.6364 12.2186C13.6364 11.4953 13.349 10.8016 12.8376 10.2901C12.3261 9.77863 11.6324 9.4913 10.9091 9.4913H9.09091C8.84981 9.4913 8.61858 9.39552 8.44809 9.22503C8.2776 9.05454 8.18182 8.82331 8.18182 8.58221C8.18182 8.3411 8.2776 8.10987 8.44809 7.93938C8.61858 7.76889 8.84981 7.67312 9.09091 7.67312ZM10 0.400391C8.02219 0.400391 6.08879 0.98688 4.4443 2.08569C2.79981 3.18451 1.51809 4.74629 0.761209 6.57355C0.00433288 8.40082 -0.1937 10.4115 0.192152 12.3513C0.578004 14.2911 1.53041 16.0729 2.92894 17.4715C4.32746 18.87 6.10929 19.8224 8.0491 20.2082C9.98891 20.5941 11.9996 20.3961 13.8268 19.6392C15.6541 18.8823 17.2159 17.6006 18.3147 15.9561C19.4135 14.3116 20 12.3782 20 10.4004C20 7.74822 18.9464 5.20469 17.0711 3.32932C15.1957 1.45396 12.6522 0.400391 10 0.400391ZM10 18.5822C8.38179 18.5822 6.79992 18.1023 5.45443 17.2033C4.10894 16.3043 3.06025 15.0265 2.44099 13.5314C1.82173 12.0364 1.6597 10.3913 1.9754 8.80419C2.29109 7.21708 3.07034 5.75922 4.21458 4.61497C5.35883 3.47072 6.81669 2.69148 8.40381 2.37578C9.99093 2.06009 11.636 2.22211 13.131 2.84138C14.6261 3.46064 15.9039 4.50932 16.8029 5.85481C17.702 7.20031 18.1818 8.78218 18.1818 10.4004C18.1818 12.5703 17.3198 14.6514 15.7854 16.1858C14.251 17.7202 12.17 18.5822 10 18.5822Z" fill="black"/>
</svg>
