<svg width="32" height="32" viewBox="0 0 32 32" fill="none" xmlns="http://www.w3.org/2000/svg">
<path d="M4 7.40043C3.73478 7.40043 3.48043 7.50579 3.29289 7.69333C3.10536 7.88086 3 8.13522 3 8.40043C3 8.66565 3.10536 8.92 3.29289 9.10754C3.48043 9.29508 3.73478 9.40043 4 9.40043H6.22L8.844 19.9004C9.067 20.7904 9.864 21.4004 10.781 21.4004H23.251C24.154 21.4004 24.921 20.8004 25.158 19.9304L27.75 10.4004H25.656L23.25 19.4004H10.78L8.157 8.90043C8.04865 8.46966 7.79888 8.08771 7.44768 7.81575C7.09648 7.54378 6.66418 7.39754 6.22 7.40043H4ZM22 21.4004C20.355 21.4004 19 22.7554 19 24.4004C19 26.0454 20.355 27.4004 22 27.4004C23.645 27.4004 25 26.0454 25 24.4004C25 22.7554 23.645 21.4004 22 21.4004ZM13 21.4004C11.355 21.4004 10 22.7554 10 24.4004C10 26.0454 11.355 27.4004 13 27.4004C14.645 27.4004 16 26.0454 16 24.4004C16 22.7554 14.645 21.4004 13 21.4004ZM16 7.40043V12.4004H13L17 16.4004L21 12.4004H18V7.40043H16ZM13 23.4004C13.564 23.4004 14 23.8364 14 24.4004C14 24.9644 13.564 25.4004 13 25.4004C12.436 25.4004 12 24.9644 12 24.4004C12 23.8364 12.436 23.4004 13 23.4004ZM22 23.4004C22.564 23.4004 23 23.8364 23 24.4004C23 24.9644 22.564 25.4004 22 25.4004C21.436 25.4004 21 24.9644 21 24.4004C21 23.8364 21.436 23.4004 22 23.4004Z" fill="black"/>
</svg>
