<svg width="20" height="16" viewBox="0 0 20 16" fill="none" xmlns="http://www.w3.org/2000/svg">
<path d="M18.125 0.400391H1.875C0.839844 0.400391 0 1.24023 0 2.27539V13.5254C0 14.5605 0.839844 15.4004 1.875 15.4004H18.125C19.1602 15.4004 20 14.5605 20 13.5254V2.27539C20 1.24023 19.1602 0.400391 18.125 0.400391ZM17.8906 13.5254H2.10938C1.98047 13.5254 1.875 13.4199 1.875 13.291V2.50977C1.875 2.38086 1.98047 2.27539 2.10938 2.27539H17.8906C18.0195 2.27539 18.125 2.38086 18.125 2.50977V13.291C18.125 13.4199 18.0195 13.5254 17.8906 13.5254ZM9.64453 10.1777C9.71094 10.2715 9.70312 10.3965 9.625 10.4785C7.53125 12.6973 2.875 11.7324 2.875 7.82617C2.875 4.02539 7.62891 3.1582 9.61328 5.08789C9.69531 5.16602 9.71094 5.21289 9.65234 5.31055L8.96875 6.50195C8.89453 6.62305 8.72656 6.6582 8.61328 6.56836C7.01953 5.31836 4.91797 5.98633 4.91797 7.78711C4.91797 9.66211 6.91016 10.541 8.51953 9.06055C8.62891 8.96289 8.79688 8.97852 8.87891 9.0957L9.64453 10.1777ZM17.082 10.1777C17.1484 10.2715 17.1406 10.3965 17.0625 10.4785C14.9688 12.7012 10.3125 11.7324 10.3125 7.82617C10.3125 4.02539 15.0664 3.1582 17.0508 5.08789C17.1328 5.16602 17.1484 5.21289 17.0898 5.31055L16.4062 6.50195C16.332 6.62305 16.1641 6.6582 16.0508 6.56836C14.457 5.31836 12.3555 5.98633 12.3555 7.78711C12.3555 9.66211 14.3477 10.541 15.957 9.06055C16.0664 8.96289 16.2344 8.97852 16.3164 9.0957L17.082 10.1777Z" fill="black"/>
</svg>
