<svg width="24" height="25" viewBox="0 0 24 25" fill="none" xmlns="http://www.w3.org/2000/svg">
<path d="M14 18.7154C12.9031 18.1929 11.9602 17.3954 11.263 16.4004H3V4.40039H21V6.66439C21.8103 7.23265 22.4917 7.96522 23 8.81439V4.40039C22.9984 3.87044 22.7872 3.36266 22.4125 2.98793C22.0377 2.6132 21.5299 2.40197 21 2.40039H3C2.47005 2.40197 1.96227 2.6132 1.58753 2.98793C1.2128 3.36266 1.00158 3.87044 1 4.40039V16.4004C1.00158 16.9303 1.2128 17.4381 1.58753 17.8129C1.96227 18.1876 2.47005 18.3988 3 18.4004H10V20.4004H8V22.4004H16V20.4004H14V18.7154Z" fill="black"/>
<path d="M17 6.40039C15.8133 6.40039 14.6533 6.75228 13.6666 7.41157C12.6799 8.07086 11.9109 9.00793 11.4567 10.1043C11.0026 11.2006 10.8838 12.407 11.1153 13.5709C11.3468 14.7348 11.9182 15.8039 12.7574 16.643C13.5965 17.4821 14.6656 18.0536 15.8295 18.2851C16.9933 18.5166 18.1997 18.3978 19.2961 17.9437C20.3925 17.4895 21.3295 16.7205 21.9888 15.7338C22.6481 14.7471 23 13.5871 23 12.4004C23.0003 11.6124 22.8452 10.8321 22.5438 10.104C22.2424 9.37591 21.8004 8.71437 21.2432 8.15716C20.686 7.59996 20.0245 7.15801 19.2964 6.85658C18.5683 6.55514 17.788 6.40013 17 6.40039ZM17 16.4004C16.2089 16.4004 15.4355 16.1658 14.7777 15.7263C14.1199 15.2867 13.6072 14.662 13.3045 13.9311C13.0017 13.2002 12.9225 12.396 13.0769 11.62C13.2312 10.8441 13.6122 10.1314 14.1716 9.57196C14.731 9.01255 15.4437 8.63159 16.2196 8.47725C16.9956 8.32291 17.7998 8.40212 18.5307 8.70487C19.2616 9.00762 19.8864 9.52031 20.3259 10.1781C20.7654 10.8359 21 11.6093 21 12.4004C20.9987 13.4609 20.5768 14.4775 19.827 15.2274C19.0771 15.9772 18.0605 16.3991 17 16.4004Z" fill="black"/>
<path d="M17 13.4004C17.5523 13.4004 18 12.9527 18 12.4004C18 11.8481 17.5523 11.4004 17 11.4004C16.4477 11.4004 16 11.8481 16 12.4004C16 12.9527 16.4477 13.4004 17 13.4004Z" fill="black"/>
</svg>
