<svg width="24" height="24" viewBox="0 0 24 24" fill="none" xmlns="http://www.w3.org/2000/svg">
<path d="M4.615 19C4.155 19 3.771 18.846 3.463 18.538C3.15433 18.2293 3 17.845 3 17.385V6.615C3 6.155 3.15433 5.771 3.463 5.463C3.771 5.15433 4.155 5 4.615 5L6.115 8H9.115L7.615 5H9.615L11.115 8H14.115L12.615 5H14.615L16.115 8H19.115L17.615 5H19.385C19.845 5 20.229 5.15433 20.537 5.463C20.8457 5.771 21 6.155 21 6.615V9.827H20V9H4V17.385C4 17.5643 4.05767 17.7117 4.173 17.827C4.28833 17.9423 4.43567 18 4.615 18H11.846V19H4.615ZM14.231 20V17.79L19.563 12.483C19.6623 12.3843 19.765 12.3177 19.871 12.283C19.9777 12.2483 20.0843 12.231 20.191 12.231C20.301 12.231 20.4123 12.2523 20.525 12.295C20.6377 12.3377 20.737 12.402 20.823 12.488L21.748 13.433C21.83 13.5317 21.8927 13.634 21.936 13.74C21.9787 13.8467 22 13.9533 22 14.06C22 14.1667 21.9793 14.274 21.938 14.382C21.8973 14.49 21.834 14.5933 21.748 14.692L16.44 20H14.231ZM15.115 19.115H16.065L19.533 15.642L19.063 15.167L18.608 14.679L15.115 18.165V19.115ZM19.063 15.167L18.608 14.679L19.533 15.642L19.063 15.167Z" fill="black"/>
</svg>
