<svg width="24" height="24" viewBox="0 0 24 24" fill="none" xmlns="http://www.w3.org/2000/svg">
<path d="M1.91498 20.1919V18.5459C1.91498 18.1112 2.03098 17.7229 2.26298 17.3809C2.49564 17.0382 2.82331 16.7612 3.24598 16.5499C4.05731 16.1419 4.95798 15.8136 5.94798 15.5649C6.93798 15.3162 7.92698 15.1919 8.91498 15.1919C9.90364 15.1919 10.893 15.3162 11.883 15.5649C12.873 15.8136 13.7736 16.1419 14.585 16.5499C15.0076 16.7612 15.335 17.0379 15.567 17.3799C15.799 17.7226 15.915 18.1112 15.915 18.5459V20.1919H1.91498ZM2.91498 19.1919H14.915V18.5459C14.915 18.2726 14.8373 18.0482 14.682 17.8729C14.526 17.6976 14.3346 17.5489 14.108 17.4269C13.482 17.1009 12.6983 16.8136 11.757 16.5649C10.815 16.3162 9.86764 16.1919 8.91498 16.1919C7.96298 16.1919 7.01598 16.3162 6.07398 16.5649C5.13264 16.8136 4.34931 17.1009 3.72398 17.4269C3.49664 17.5489 3.30498 17.6976 3.14898 17.8729C2.99298 18.0489 2.91498 18.2732 2.91498 18.5459V19.1919ZM8.91498 12.9619C8.05898 12.9619 7.34498 12.6759 6.77298 12.1039C6.20098 11.5319 5.91498 10.7792 5.91498 9.8459H5.31998V9.0759H5.91598C5.94198 8.5699 6.04865 8.1099 6.23598 7.6959C6.42264 7.2819 6.72631 6.88724 7.14698 6.5119V7.8459H7.91698V6.1499C8.05364 6.0999 8.20864 6.0559 8.38198 6.0179C8.55531 5.98057 8.73331 5.9619 8.91598 5.9619C9.09865 5.9619 9.27698 5.98057 9.45098 6.0179C9.62431 6.0559 9.77931 6.0999 9.91598 6.1499V7.8459H10.686V6.5119C11.1193 6.88724 11.426 7.2819 11.606 7.6959C11.7873 8.1099 11.8906 8.5699 11.916 9.0759H12.513V9.8459H11.916C11.916 10.7792 11.6303 11.5319 11.059 12.1039C10.487 12.6759 9.77264 12.9619 8.91598 12.9619M8.91598 11.9619C9.49198 11.9619 9.96931 11.7722 10.348 11.3929C10.7266 11.0142 10.916 10.5372 10.916 9.9619H6.91598C6.91598 10.5372 7.10564 11.0142 7.48498 11.3929C7.86365 11.7722 8.34064 11.9619 8.91598 11.9619ZM16.455 14.8459L16.382 14.1349C16.256 14.1016 16.125 14.0482 15.989 13.9749C15.853 13.9016 15.7363 13.8162 15.639 13.7189L14.978 14.0079L14.593 13.3379L15.182 12.9149C15.156 12.8396 15.143 12.7706 15.143 12.7079V12.3019C15.143 12.2452 15.156 12.1729 15.182 12.0849L14.593 11.6619L14.978 10.9919L15.639 11.2809C15.7316 11.1882 15.8473 11.1042 15.986 11.0289C16.124 10.9529 16.256 10.8982 16.382 10.8649L16.455 10.1539H17.225L17.297 10.8649C17.423 10.8982 17.555 10.9529 17.693 11.0289C17.8316 11.1042 17.947 11.1882 18.039 11.2809L18.701 10.9919L19.086 11.6619L18.497 12.0849C18.523 12.1729 18.536 12.2452 18.536 12.3019V12.7079C18.536 12.7706 18.523 12.8396 18.497 12.9149L19.086 13.3379L18.701 14.0079L18.039 13.7189C17.943 13.8149 17.8266 13.8999 17.69 13.9739C17.5533 14.0479 17.4223 14.1012 17.297 14.1339L17.224 14.8459H16.455ZM16.839 13.4039C17.0903 13.4039 17.3036 13.3159 17.479 13.1399C17.655 12.9646 17.743 12.7512 17.743 12.4999C17.743 12.2486 17.6553 12.0352 17.48 11.8599C17.304 11.6839 17.0906 11.5959 16.84 11.5959C16.5886 11.5959 16.3753 11.6839 16.2 11.8599C16.024 12.0352 15.936 12.2486 15.936 12.4999C15.936 12.7512 16.0236 12.9646 16.199 13.1399C16.375 13.3159 16.5883 13.4039 16.839 13.4039ZM18.87 9.4239L18.786 8.6419C18.5973 8.60524 18.3986 8.5299 18.19 8.4159C17.9813 8.30191 17.8146 8.16324 17.69 7.9999L16.947 8.3119L16.517 7.5729L17.174 7.0929C17.1406 6.99624 17.1173 6.89724 17.104 6.7959C17.092 6.69457 17.086 6.5959 17.086 6.4999C17.086 6.4039 17.0923 6.30524 17.105 6.2039C17.1183 6.10257 17.1416 6.0039 17.175 5.9079L16.516 5.4269L16.947 4.6879L17.689 4.9999C17.815 4.8359 17.982 4.69724 18.19 4.5839C18.398 4.47057 18.5966 4.39524 18.786 4.3579L18.87 3.5769H19.732L19.816 4.3569C20.0046 4.39424 20.2033 4.4699 20.412 4.5839C20.62 4.69724 20.7866 4.8359 20.912 4.9999L21.655 4.6879L22.085 5.4269L21.428 5.9069C21.4613 6.00357 21.4846 6.10257 21.498 6.2039C21.51 6.30524 21.516 6.4039 21.516 6.4999C21.516 6.5959 21.5096 6.69457 21.497 6.7959C21.4836 6.89724 21.4603 6.9959 21.427 7.0919L22.086 7.5729L21.655 8.3119L20.912 7.9999C20.786 8.1639 20.619 8.30257 20.411 8.4159C20.2023 8.52924 20.0036 8.60457 19.815 8.6419L19.731 9.4229L18.87 9.4239ZM19.301 7.8649C19.6896 7.8649 20.0143 7.73457 20.275 7.4739C20.5356 7.21324 20.666 6.88857 20.666 6.4999C20.666 6.11124 20.536 5.78657 20.276 5.5259C20.0146 5.26524 19.6896 5.1349 19.301 5.1349C18.9123 5.1349 18.5876 5.26524 18.327 5.5259C18.0663 5.78657 17.936 6.11124 17.936 6.4999C17.936 6.88857 18.0663 7.21324 18.327 7.4739C18.5876 7.73457 18.9123 7.8649 19.301 7.8649Z" fill="black"/>
</svg>
