<svg width="20" height="21" viewBox="0 0 20 21" fill="none" xmlns="http://www.w3.org/2000/svg">
<path d="M5 4.40039C5 3.86996 5.21071 3.36125 5.58579 2.98618C5.96086 2.6111 6.46957 2.40039 7 2.40039H13C13.5304 2.40039 14.0391 2.6111 14.4142 2.98618C14.7893 3.36125 15 3.86996 15 4.40039V7.48539C14.6764 7.37149 14.3236 7.37149 14 7.48539V4.40039C14 4.13517 13.8946 3.88082 13.7071 3.69328C13.5196 3.50575 13.2652 3.40039 13 3.40039H7C6.73478 3.40039 6.48043 3.50575 6.29289 3.69328C6.10536 3.88082 6 4.13517 6 4.40039V7.48539C5.6764 7.37149 5.3236 7.37149 5 7.48539V4.40039ZM5 14.3154C5.323 14.4294 5.677 14.4294 6 14.3154V16.4004C6 16.6656 6.10536 16.92 6.29289 17.1075C6.48043 17.295 6.73478 17.4004 7 17.4004H13C13.2652 17.4004 13.5196 17.295 13.7071 17.1075C13.8946 16.92 14 16.6656 14 16.4004V14.3154C14.323 14.4294 14.677 14.4294 15 14.3154V16.4004C15 16.9308 14.7893 17.4395 14.4142 17.8146C14.0391 18.1897 13.5304 18.4004 13 18.4004H7C6.46957 18.4004 5.96086 18.1897 5.58579 17.8146C5.21071 17.4395 5 16.9308 5 16.4004V14.3154ZM3.147 10.5464L5.147 8.54639C5.19349 8.49997 5.24866 8.46316 5.30938 8.43806C5.37009 8.41296 5.43516 8.40007 5.50085 8.40011C5.56655 8.40016 5.6316 8.41315 5.69227 8.43833C5.75295 8.46351 5.80808 8.5004 5.8545 8.54689C5.90092 8.59338 5.93773 8.64856 5.96283 8.70927C5.98793 8.76998 6.00082 8.83505 6.00078 8.90074C6.00073 8.96644 5.98775 9.03149 5.96256 9.09216C5.93738 9.15284 5.90049 9.20797 5.854 9.25439L4.707 10.4004H7.5C7.63261 10.4004 7.75979 10.4531 7.85355 10.5468C7.94732 10.6406 8 10.7678 8 10.9004C8 11.033 7.94732 11.1602 7.85355 11.2539C7.75979 11.3477 7.63261 11.4004 7.5 11.4004H4.707L5.854 12.5464C5.94789 12.6403 6.00063 12.7676 6.00063 12.9004C6.00063 13.0332 5.94789 13.1605 5.854 13.2544C5.76011 13.3483 5.63278 13.401 5.5 13.401C5.36722 13.401 5.23989 13.3483 5.146 13.2544L3.146 11.2544C3.05293 11.1612 3.00045 11.0351 3 10.9034V10.8974C3.0006 10.767 3.0523 10.6421 3.144 10.5494L3.147 10.5464ZM14.854 13.2544L16.854 11.2544L16.856 11.2514C16.9476 11.1587 16.9993 11.0337 17 10.9034V10.8974C16.9992 10.7661 16.9467 10.6404 16.854 10.5474L14.854 8.54739C14.7602 8.4535 14.633 8.40071 14.5004 8.40061C14.3677 8.40052 14.2404 8.45314 14.1465 8.54689C14.0526 8.64064 13.9998 8.76786 13.9997 8.90054C13.9996 9.03322 14.0522 9.1605 14.146 9.25439L15.293 10.4004H12.5C12.3674 10.4004 12.2402 10.4531 12.1464 10.5468C12.0527 10.6406 12 10.7678 12 10.9004C12 11.033 12.0527 11.1602 12.1464 11.2539C12.2402 11.3477 12.3674 11.4004 12.5 11.4004H15.293L14.146 12.5464C14.0521 12.6403 13.9994 12.7676 13.9994 12.9004C13.9994 13.0332 14.0521 13.1605 14.146 13.2544C14.2399 13.3483 14.3672 13.401 14.5 13.401C14.6328 13.401 14.7601 13.3483 14.854 13.2544Z" fill="black"/>
</svg>
