<svg width="20" height="19" viewBox="0 0 20 19" fill="none" xmlns="http://www.w3.org/2000/svg">
<path d="M19.1304 7.13566L17.1436 2.83082C17.2885 2.69939 17.4045 2.53931 17.4843 2.36073C17.5641 2.18209 17.606 1.98887 17.6072 1.79325C17.606 1.47576 17.4968 1.16814 17.2975 0.920983C17.0982 0.673824 16.8207 0.50184 16.5107 0.433332C16.2007 0.364823 15.8767 0.40386 15.5918 0.544031C15.3069 0.684196 15.0782 0.917144 14.9433 1.20455L4.89873 3.758C4.65096 3.54488 4.33513 3.42741 4.00833 3.42687C3.72479 3.42495 3.44746 3.50975 3.21348 3.66988C2.97945 3.83002 2.80002 4.05784 2.69912 4.32283C2.59826 4.58782 2.58079 4.87734 2.64908 5.15254C2.71736 5.42774 2.86808 5.67551 3.08115 5.86259L1.04279 10.2778L6.96654 10.2557L4.93551 5.84051C5.15195 5.64648 5.30134 5.38887 5.36235 5.10463L8.99018 4.18483V15.4877H8.91655L4.01571 17.011C3.85894 17.0606 3.7219 17.1585 3.62411 17.2907C3.52632 17.4228 3.4728 17.5825 3.47114 17.7468V17.7984C3.46478 17.9019 3.48034 18.0055 3.51686 18.1025C3.55332 18.1995 3.60989 18.2877 3.68282 18.3614C3.7558 18.435 3.84344 18.4925 3.94016 18.5298C4.03683 18.5672 4.14029 18.5838 4.2438 18.5784H15.9368C16.0396 18.5837 16.1424 18.5673 16.2386 18.5304C16.3347 18.4934 16.422 18.4367 16.4948 18.3639C16.5677 18.291 16.6244 18.2037 16.6614 18.1075C16.6983 18.0114 16.7147 17.9086 16.7094 17.8057V17.7468C16.7083 17.5834 16.6558 17.4244 16.5594 17.2924C16.463 17.1603 16.3276 17.0619 16.1722 17.011L11.2787 15.4877H11.1978V3.71389L15.1126 2.67629L15.2597 2.83082L13.2656 7.15036C13.7059 7.15036 18.7269 7.13566 19.1304 7.13566ZM2.25697 10.2778L4.00833 6.48073L5.73539 10.2609L2.25697 10.2778ZM16.2385 3.44896L17.9457 7.12828H14.5092L16.2385 3.44896Z" fill="#333333"/>
<path fill-rule="evenodd" clip-rule="evenodd" d="M4.01007 13.0804C5.25693 13.0804 6.32254 12.3044 6.75034 11.209C5.72772 11.209 5.07488 11.209 4.51983 11.209C3.58896 11.2091 2.93323 11.2091 1.26984 11.209C1.69762 12.3044 2.76326 13.0804 4.01007 13.0804ZM0.144159 11.209C0.0502007 10.8686 0 10.51 0 10.1396H1.06935C2.88618 10.1397 3.55538 10.1397 4.52619 10.1396H6.95079H8.02014V10.1411C8.02004 10.5109 7.96983 10.869 7.87599 11.209C7.40799 12.9046 5.85443 14.1497 4.01007 14.1497C2.16569 14.1497 0.612135 12.9046 0.144159 11.209Z" fill="#333333"/>
<path fill-rule="evenodd" clip-rule="evenodd" d="M15.9899 10.0313C17.2368 10.0313 18.3024 9.25532 18.7301 8.15993C17.7076 8.15993 17.0547 8.15993 16.4997 8.15993C15.5688 8.15998 14.913 8.15998 13.2497 8.15993C13.6775 9.25532 14.7431 10.0313 15.9899 10.0313ZM12.124 8.15993C12.0301 7.8195 11.9799 7.46089 11.9799 7.09058H13.0492C14.866 7.09063 15.5352 7.09063 16.5061 7.09058H18.9307H20V7.09202C19.9998 7.4618 19.9497 7.81993 19.8559 8.15993C19.3879 9.8555 17.8343 11.1006 15.9899 11.1006C14.1455 11.1006 12.592 9.8555 12.124 8.15993Z" fill="#333333"/>
</svg>
