<svg width="24" height="24" viewBox="0 0 24 24" fill="none" xmlns="http://www.w3.org/2000/svg">
<path fill-rule="evenodd" clip-rule="evenodd" d="M1.59998 5.96162C1.59998 5.51979 1.95815 5.16162 2.39998 5.16162H21.6C22.0418 5.16162 22.4 5.51979 22.4 5.96162V13.5053C22.4 13.9071 22.1021 14.2465 21.7038 14.2986L12.1038 15.5549C12.0349 15.5639 11.965 15.5639 11.8961 15.5549L2.29611 14.2978C1.89783 14.2457 1.59998 13.9063 1.59998 13.5046V5.96162ZM3.19998 6.76162V12.8025L12 13.9548L20.8 12.8033V6.76162H3.19998Z" fill="#003438"/>
<path fill-rule="evenodd" clip-rule="evenodd" d="M3.20002 12.7983C3.64185 12.7983 4.00002 13.1566 4.00002 13.5983V20.7983H20V13.5983C20 13.1566 20.3582 12.7983 20.8 12.7983C21.2419 12.7983 21.6 13.1566 21.6 13.5983V21.5983C21.6 22.0402 21.2419 22.3983 20.8 22.3983H3.20002C2.7582 22.3983 2.40002 22.0402 2.40002 21.5983V13.5983C2.40002 13.1566 2.7582 12.7983 3.20002 12.7983Z" fill="#003438"/>
<path fill-rule="evenodd" clip-rule="evenodd" d="M12 12.7983C12.4419 12.7983 12.8 13.1566 12.8 13.5983V15.9983C12.8 16.4402 12.4419 16.7983 12 16.7983C11.5582 16.7983 11.2 16.4402 11.2 15.9983V13.5983C11.2 13.1566 11.5582 12.7983 12 12.7983Z" fill="#003438"/>
<path fill-rule="evenodd" clip-rule="evenodd" d="M9.60001 3.2001C9.38801 3.2001 9.18449 3.28439 9.03433 3.43453C8.88425 3.58461 8.80001 3.78799 8.80001 4.0001V5.6001C8.80001 6.04192 8.44185 6.4001 8.00001 6.4001C7.55819 6.4001 7.20001 6.04192 7.20001 5.6001V4.0001C7.20001 3.36351 7.45291 2.7532 7.90296 2.30316C8.35297 1.85319 8.96337 1.6001 9.60001 1.6001H14.4C15.0367 1.6001 15.6471 1.85319 16.0971 2.30316C16.5471 2.7532 16.8 3.36351 16.8 4.0001V5.6001C16.8 6.04192 16.4419 6.4001 16 6.4001C15.5582 6.4001 15.2 6.04192 15.2 5.6001V4.0001C15.2 3.78799 15.1158 3.58461 14.9657 3.43453C14.8155 3.28439 14.612 3.2001 14.4 3.2001H9.60001Z" fill="#003438"/>
</svg>
