<svg width="16" height="16" viewBox="0 0 16 16" fill="none" xmlns="http://www.w3.org/2000/svg">
<g clip-path="url(#clip0_2206_11955)">
<path d="M14.25 2.10002C14.0781 1.9888 13.8815 1.92151 13.6775 1.90408C13.4735 1.88664 13.2683 1.91959 13.08 2.00002L6.91 4.43002C6.76393 4.48947 6.60771 4.52003 6.45 4.52002H2.5C2.16848 4.52002 1.85054 4.65171 1.61612 4.88613C1.3817 5.12055 1.25 5.4385 1.25 5.77002V5.87002H0V8.87002H1.25V9.00002C1.25783 9.32631 1.39298 9.6366 1.62656 9.86457C1.86013 10.0925 2.17361 10.2201 2.5 10.22L4 13.4C4.10157 13.6142 4.26148 13.7953 4.46136 13.9227C4.66124 14.05 4.893 14.1184 5.13 14.12H5.76C6.08979 14.1174 6.40516 13.9845 6.63743 13.7504C6.86969 13.5162 7.00001 13.1998 7 12.87V10.34L13.08 12.77C13.2295 12.8295 13.389 12.8601 13.55 12.86C13.7997 12.856 14.0429 12.7796 14.25 12.64C14.4145 12.529 14.5501 12.3803 14.6458 12.2065C14.7414 12.0326 14.7943 11.8384 14.8 11.64V3.13002C14.7991 2.92653 14.7485 2.72635 14.6527 2.54685C14.5568 2.36735 14.4186 2.21397 14.25 2.10002ZM5.75 5.77002V9.00002H2.5V5.77002H5.75ZM5.75 12.87H5.12L3.89 10.22H5.75V12.87ZM7.37 9.15002C7.25127 9.08934 7.12747 9.03915 7 9.00002V5.70002C7.12624 5.67397 7.25003 5.63717 7.37 5.59002L13.55 3.13002V11.61L7.37 9.15002ZM14.83 6.12002V8.62002C15.1615 8.62002 15.4795 8.48832 15.7139 8.2539C15.9483 8.01948 16.08 7.70154 16.08 7.37002C16.08 7.0385 15.9483 6.72055 15.7139 6.48613C15.4795 6.25171 15.1615 6.12002 14.83 6.12002Z" fill="black"/>
</g>
<defs>
<clipPath id="clip0_2206_11955">
<rect width="16" height="16" fill="white"/>
</clipPath>
</defs>
</svg>
